<svg width="40" height="40" viewBox="0 0 40 40" fill="none" xmlns="http://www.w3.org/2000/svg">
<g id="Logo_White">
<g id="Group">
<g id="Group_2">
<path id="Vector" opacity="0.5" d="M8.3622 30.9618L9.96405 31.9662C22.6753 38.3418 22.9641 33.0816 21.8145 31.3462C20.2971 29.0586 14.3746 30.082 18.2021 21.6326C9.6998 25.4363 10.7296 19.5481 8.42758 18.0428C6.68134 16.9004 1.38815 17.1901 7.80373 29.8193L8.81442 31.4112" fill="white"/>
<g id="Group_3">
<path id="XMLID_00000083795193079814119910000009882392823716278924_" d="M21.8391 20.4036C22.5692 19.7782 22.5801 18.6168 21.8119 17.8507C21.0436 17.0872 19.8722 17.0981 19.2429 17.8236C19.2129 17.8588 19.183 17.9021 19.153 17.9481C19.1312 17.9806 19.1067 18.0158 19.0849 18.0564C18.7743 18.5708 18.4011 21.2429 18.4011 21.2429C18.4011 21.2429 21.0899 20.8692 21.6076 20.5606C21.6321 20.5471 21.6539 20.5308 21.6784 20.5173C21.7383 20.4794 21.7955 20.4415 21.8391 20.4036Z" fill="white"/>
<path id="Vector_2" d="M35.7055 4.54182C33.6078 2.45724 25.7021 6.84027 21.7574 10.0105C21.4849 10.2297 21.1471 10.3462 20.7957 10.3489C19.755 10.3543 18.8016 10.2839 17.9952 10.1296C17.3005 9.99692 14.6607 11.5319 15.1429 12.0111L28.0395 24.8272C28.5216 25.3064 30.069 22.6776 29.9328 21.99C29.7966 21.2915 29.7203 20.4712 29.7067 19.5697C29.7012 19.207 29.8238 18.8523 30.0581 18.5735C33.2591 14.7156 37.8331 6.65888 35.7055 4.54182ZM30.1698 7.28155C31.1396 6.31777 32.5154 6.12014 33.2427 6.84297C33.9701 7.56581 33.7713 8.93297 32.8014 9.89675C31.8316 10.8605 30.4559 11.0582 29.7285 10.3353C29.0011 9.61248 29.2 8.24533 30.1698 7.28155Z" fill="white"/>
</g>
<path id="Vector_3" d="M35.0488 16.053C34.2642 17.3308 33.4115 18.5653 32.5888 19.6184C32.597 19.8025 32.6024 19.9839 32.6024 20.1707C32.6024 27.0579 27.1185 32.6971 20.2616 33.0031C20.8473 32.93 21.1906 32.8569 21.1906 32.8569C21.1906 32.8569 10.814 34.6436 16.1562 23.6414C5.08488 28.9503 6.90739 18.6628 6.90739 18.6628C6.90739 18.6628 6.83384 19.0039 6.76028 19.586C7.06812 12.7718 12.7427 7.32213 19.6732 7.32213C20.1635 7.32213 20.6484 7.35191 21.1252 7.40605C22.1332 6.65344 23.3155 5.86021 24.5741 5.11572C23.0294 4.61759 21.384 4.34686 19.6759 4.34686C10.8957 4.34686 3.75 11.4453 3.75 20.1734C3.75 28.9016 10.893 36 19.6759 36C28.4588 36 35.6018 28.9016 35.6018 20.1734C35.5991 18.7467 35.4056 17.3687 35.0488 16.053Z" fill="white"/>
</g>
</g>
</g>
</svg>
