<svg width="24" height="24" viewBox="0 0 24 24" fill="none" xmlns="http://www.w3.org/2000/svg" class="fill-current">
<g clip-path="url(#clip0_83_3309)">
<path opacity="0.4" d="M12.9599 6.33601V0.480011C18.8159 0.960011 23.5199 5.95201 23.5199 12C23.5199 18.432 18.2399 23.52 11.9999 23.52C9.21591 23.52 6.62391 22.56 4.60791 20.832L8.63991 16.608C9.59991 17.28 10.8479 17.664 11.9039 17.664C15.0719 17.664 17.6639 15.168 17.6639 11.904C17.6639 9.21601 15.7439 6.81601 12.9599 6.33601Z" fill="#8B8B8B"/>
<path d="M11.04 0.480011V6.33601C8.63998 6.72001 6.71998 8.64001 6.33598 11.04H0.47998C0.95998 5.47201 5.47198 0.960011 11.04 0.480011ZM7.29598 15.264L3.16798 19.392C1.63198 17.568 0.67198 15.36 0.47998 12.96H6.33598C6.52798 13.824 6.81598 14.592 7.29598 15.264Z" fill="#8B8B8B"/>
</g>
<defs>
<clipPath id="clip0_83_3309">
<rect width="24" height="24" fill="white"/>
</clipPath>
</defs>
</svg>
