<svg width="24" height="24" viewBox="0 0 24 24" fill="none" xmlns="http://www.w3.org/2000/svg">
<g id="Sonic 2">
<path id="Vector" d="M16.1365 7.858C11.7812 3.5027 6.73794 1.48462 4.08014 4.14243C1.42234 6.80024 3.44042 11.8435 7.7957 16.1987C12.151 20.554 17.1584 22.6078 19.852 19.9143C22.5455 17.2207 20.4917 12.2133 16.1365 7.858Z" fill="white"/>
<path id="Vector_2" d="M17.9426 11.1919C18.4414 11.893 18.8678 12.5903 19.2136 13.2738C19.4729 13.7869 19.686 14.2909 19.8494 14.7883C20.0693 15.4652 20.2013 16.1273 20.1921 16.7946C19.1696 17.0365 18.1918 17.0349 17.2797 16.8706C17.2895 16.7873 17.2928 16.6714 17.2788 16.5247C17.2527 16.2385 17.1594 15.8453 16.9862 15.3931C16.7283 14.7134 16.2944 13.9021 15.7074 13.0541C15.1213 12.2051 14.383 11.3169 13.5234 10.4574C12.7256 9.6595 11.9036 8.96663 11.1109 8.40242C10.5168 7.97898 9.93827 7.62805 9.40523 7.35871C9.00542 7.15672 8.63113 7.00095 8.29949 6.89149C7.80201 6.72637 7.39809 6.67735 7.1718 6.69398C7.14826 6.69574 7.12834 6.6975 7.10932 6.70017C6.94587 5.78806 6.94343 4.81022 7.18621 3.78776C7.19976 3.78779 7.21336 3.78602 7.22601 3.78605C7.89326 3.78501 8.55637 3.92068 9.23324 4.14511C10.2472 4.48446 11.2998 5.03124 12.3726 5.75011C13.4428 6.46986 14.5288 7.36349 15.5735 8.4073C16.482 9.31589 17.2775 10.2576 17.9426 11.1919Z" fill="#F79342"/>
<path id="Vector_3" fill-rule="evenodd" clip-rule="evenodd" d="M6.01398 9.48585L7.18165 7.99191C7.5652 7.50116 7.98869 7.02161 8.45034 6.55995C10.3087 4.70156 12.4728 3.4469 14.5025 2.94581C16.5141 2.44922 18.5336 2.67052 19.8869 3.99593C19.899 4.00756 19.911 4.01932 19.9229 4.03122C19.9393 4.0476 19.9554 4.06419 19.9712 4.08099C21.2871 5.4365 21.504 7.45304 21.0061 9.46118C20.5035 11.4882 19.2498 13.6485 17.3942 15.5041C16.9326 15.9658 16.453 16.3893 15.9623 16.7728L14.4683 17.9405L14.69 16.1923C14.3415 16.5237 13.985 16.8461 13.6226 17.1573C11.9887 18.5602 10.2879 19.6887 8.72669 20.3861L6.86262 21.2188L7.75558 19.2197C6.95875 19.6978 6.25676 20.058 5.67732 20.3251C5.13426 20.5755 4.69905 20.7442 4.3946 20.8515C4.24237 20.9051 4.12282 20.9435 4.03881 20.9691C3.99681 20.9819 3.96369 20.9915 3.9398 20.9982C3.92786 21.0016 3.91823 21.0042 3.91095 21.0062C3.90731 21.0072 3.90426 21.008 3.9018 21.0086L3.89856 21.0095L3.89672 21.01C3.89647 21.01 3.89622 21.0101 3.69973 20.2544C3.69973 20.2544 4.03512 20.1672 4.63226 19.9268C5.44344 19.6001 6.73766 18.9907 8.33036 17.9329C8.72886 17.6683 9.14602 17.3756 9.57899 17.0522L8.40824 19.6731C8.76717 19.5128 9.13576 19.3275 9.51095 19.119C10.6778 18.4709 11.9086 17.5997 13.1139 16.5649C13.7119 16.0515 14.2934 15.5064 14.8487 14.9404C15.1611 14.6219 15.4652 14.2969 15.7592 13.967L15.4815 16.1576C15.78 15.9243 16.0745 15.6751 16.3633 15.4105C16.5248 15.2624 16.6845 15.1096 16.8421 14.952C20.3859 11.4082 21.5263 6.79636 19.4068 4.62056C19.395 4.60796 19.383 4.59556 19.3708 4.58335C19.3619 4.57444 19.3529 4.56565 19.3437 4.55696C17.172 2.42443 12.5516 3.56292 9.00249 7.11205C8.84487 7.26967 8.69204 7.42942 8.544 7.59092C8.2794 7.87969 8.0302 8.17419 7.79687 8.47272L9.98702 8.19502C9.65719 8.48903 9.3321 8.79311 9.01365 9.10551C8.44768 9.66077 7.90267 10.2423 7.38928 10.8402C6.35443 12.0455 5.48329 13.2764 4.83513 14.4432C4.62671 14.8184 4.44134 15.187 4.28099 15.5459L6.90585 14.3734C6.58316 14.806 6.29086 15.2229 6.02645 15.6214C4.96987 17.2136 4.35807 18.5105 4.02947 19.3229C3.78837 19.919 3.69973 20.2544 3.69973 20.2544C2.94482 20.0549 2.94489 20.0547 2.94495 20.0544L2.94544 20.0526L2.9463 20.0494C2.94696 20.0469 2.94778 20.0439 2.94878 20.0403C2.95077 20.033 2.95345 20.0234 2.95686 20.0115C2.96368 19.9877 2.9734 19.9545 2.98635 19.9125C3.01225 19.8284 3.05104 19.7087 3.10521 19.5562C3.21356 19.2513 3.38345 18.8155 3.63484 18.2719C3.90276 17.6927 4.26319 16.9913 4.74017 16.196L2.73539 17.0915L3.56806 15.2275C4.26544 13.6663 5.39398 11.9655 6.79684 10.3316C7.10802 9.96919 7.4304 9.61275 7.76176 9.26426L6.01398 9.48585ZM3.69973 20.2544L3.89622 21.0101L2.60352 21.3463L2.94483 20.0549L3.69973 20.2544Z" fill="white"/>
<path id="Vector_4" d="M3.69922 20.2545C3.69922 20.2545 4.0346 20.1673 4.63174 19.9268C5.44293 19.6002 6.73715 18.9907 8.32984 17.933C8.72834 17.6683 9.1455 17.3756 9.57847 17.0523L8.40773 19.6732C8.76665 19.5128 9.13525 19.3275 9.51044 19.119C10.6773 18.4709 11.9081 17.5997 13.1134 16.5649C13.7114 16.0515 14.2929 15.5065 14.8482 14.9404C15.1606 14.6219 15.4647 14.2969 15.7587 13.9671L15.481 16.1576C15.7795 15.9243 16.074 15.6751 16.3628 15.4105C16.5243 15.2625 16.684 15.1096 16.8416 14.952C20.3854 11.4082 21.5258 6.79638 19.4063 4.62058C19.3945 4.60799 19.3825 4.59559 19.3703 4.58338C19.3614 4.57447 19.3524 4.56567 19.3432 4.55698C17.1715 2.42445 12.5511 3.56295 9.00198 7.11208C8.84436 7.2697 8.69153 7.42944 8.54348 7.59095C8.27888 7.87972 8.02969 8.17422 7.79635 8.47275L9.98651 8.19505C9.65667 8.48906 9.33158 8.79314 9.01314 9.10553C8.44717 9.6608 7.90216 10.2424 7.38877 10.8403C6.35391 12.0455 5.48278 13.2764 4.83462 14.4432C4.62619 14.8184 4.44083 15.187 4.28048 15.5459L6.90534 14.3735C6.58264 14.806 6.29035 15.223 6.02593 15.6215C4.96936 17.2137 4.35756 18.5105 4.02896 19.323C3.78786 19.9191 3.69922 20.2545 3.69922 20.2545Z" fill="white"/>
<path id="Vector_5" fill-rule="evenodd" clip-rule="evenodd" d="M7.79633 8.47261C8.16018 8.00711 8.56261 7.55132 9.00196 7.11194C12.5511 3.56279 17.1715 2.4243 19.3433 4.55683C19.3524 4.56552 19.3614 4.57431 19.3703 4.58323C19.3825 4.59543 19.3945 4.60784 19.4063 4.62043C21.5258 6.79624 20.3854 11.4081 16.8416 14.9519C16.4022 15.3912 15.9465 15.7936 15.4809 16.1575L15.7587 13.9669C14.9421 14.883 14.0478 15.7625 13.1134 16.5647C11.5206 17.9323 9.88299 19.014 8.4077 19.673L9.57845 17.0521C6.14116 19.6194 3.69922 20.2543 3.69922 20.2543C3.69922 20.2543 4.34734 17.8021 6.90532 14.3733L4.28048 15.5458C4.93949 14.0705 6.02117 12.4329 7.38875 10.8401C8.19099 9.90578 9.07044 9.01147 9.98649 8.19491L7.79633 8.47261Z" fill="#0000FF"/>
<path id="Vector_6" d="M6.65908 7.38844C6.69418 7.67282 6.78657 8.04426 6.94879 8.46838C7.10465 8.8789 7.32489 9.33758 7.60227 9.82268C8.31172 11.1228 9.20251 12.1535 9.81529 12.8051C10.0286 13.0383 10.2501 13.2716 10.4806 13.5021C10.6994 13.7209 10.9199 13.9306 11.1414 14.133C11.7939 14.7485 12.8455 15.6647 14.1792 16.3897C14.3496 16.4869 14.5173 16.5788 14.6805 16.6616C15.0876 16.8682 15.47 17.0267 15.808 17.138C16.1089 17.2383 16.3752 17.2951 16.5916 17.3228C17.7041 17.5773 18.921 17.6084 20.2021 17.2532C20.1786 17.627 20.1062 18.0053 19.9614 18.3734C19.8165 18.7415 19.5929 19.0977 19.2967 19.3921C18.9463 19.7434 18.5123 19.9904 18.0717 20.1305C17.6846 20.2545 17.2918 20.3042 16.9033 20.3059C16.2225 20.3078 15.5467 20.1685 14.8563 19.9395C13.8214 19.5938 12.7481 19.0361 11.6552 18.3027C10.5633 17.5684 9.45555 16.6575 8.39087 15.5928C7.46417 14.6661 6.65325 13.7062 5.97452 12.7529C5.4657 12.0373 5.03114 11.3264 4.6781 10.6293C4.41422 10.1062 4.19564 9.59138 4.02958 9.08486C3.78231 8.32368 3.64282 7.58093 3.68529 6.82956C3.70789 6.45482 3.78027 6.07475 3.92691 5.7057C4.07175 5.33756 4.29539 4.98233 4.59161 4.68702C4.94202 4.33571 5.37598 4.08873 5.81654 3.9486C6.11958 3.85158 6.42547 3.80074 6.73055 3.7825C6.37523 5.06181 6.40636 6.27692 6.65998 7.38844H6.65908Z" fill="#FBB042"/>
</g>
</svg>
