<svg width="24" height="24" viewBox="0 0 24 24" fill="none" xmlns="http://www.w3.org/2000/svg">
<path opacity="0.4" d="M1 10C1 6.685 5.92723 4 12 4C18.0728 4 23 6.685 23 10C23 13.315 18.0728 16 12 16C5.92723 16 1 13.315 1 10Z" fill="#8B8B8B"/>
<path d="M1 14.3427C1 15.5701 1.77344 16.7015 3.0625 17.6279V14.7847C2.25254 14.2543 1.54141 13.6638 1 13V14.3427ZM4.4375 18.4314C5.60152 19.0011 7.00102 19.4396 8.5625 19.7043V16.862C7.04184 16.5968 5.64879 16.1601 4.4375 15.5803V18.4314ZM20.9375 14.7847V17.6275C22.2287 16.6993 23 15.5696 23 14.3423V13.0004C22.4586 13.6643 21.7475 14.2543 20.9375 14.7847ZM15.4375 19.7043C16.999 19.4391 18.3985 19.0011 19.5625 18.4314V15.5803C18.3512 16.1601 16.9582 16.5968 15.4375 16.862V19.7043ZM9.9375 17.0476V19.8802C10.6087 19.947 11.2906 20 12 20C12.7094 20 13.3913 19.947 14.0625 19.8802V17.0476C13.3775 17.1245 12.6891 17.1658 12 17.1714C11.3109 17.1658 10.6225 17.1245 9.9375 17.0476Z" fill="#8B8B8B"/>
</svg>
