<svg width="202" height="44" viewBox="0 0 202 44" fill="none" xmlns="http://www.w3.org/2000/svg">
<path d="M8.93613 34.0581L10.6897 35.1629C24.605 42.176 24.9211 36.3898 23.6626 34.4809C22.0015 31.9645 15.518 33.0902 19.7081 23.796C10.4004 27.98 11.5277 21.5029 9.00771 19.8472C7.09607 18.5905 1.30152 18.9091 8.32477 32.8014L9.43119 34.5524" fill="#0077FF"/>
<path d="M23.6897 22.444C24.4889 21.7561 24.5008 20.4785 23.6598 19.6358C22.8188 18.796 21.5365 18.8079 20.8476 19.606C20.8147 19.6447 20.7819 19.6923 20.7491 19.743C20.7253 19.7787 20.6984 19.8174 20.6746 19.8621C20.3346 20.4279 19.926 23.3672 19.926 23.3672C19.926 23.3672 22.8695 22.9562 23.4362 22.6167C23.463 22.6018 23.4869 22.5839 23.5137 22.5691C23.5793 22.5274 23.6419 22.4857 23.6897 22.444Z" fill="#FFA700"/>
<path d="M38.8693 4.99602C36.573 2.70299 27.9184 7.52432 23.6001 11.0115C23.3019 11.2527 22.9321 11.3808 22.5474 11.3838C21.4081 11.3897 20.3643 11.3123 19.4816 11.1426C18.7211 10.9966 15.8313 12.6851 16.3591 13.2122L30.4772 27.31C31.0051 27.8371 32.699 24.9454 32.5499 24.189C32.4008 23.4207 32.3173 22.5184 32.3024 21.5267C32.2964 21.1277 32.4306 20.7376 32.6871 20.4308C36.1912 16.1872 41.1985 7.3248 38.8693 4.99602ZM32.8093 8.00973C33.871 6.94957 35.3771 6.73218 36.1733 7.5273C36.9696 8.32242 36.7519 9.82629 35.6902 10.8864C34.6285 11.9466 33.1225 12.164 32.3262 11.3689C31.5299 10.5738 31.7477 9.06989 32.8093 8.00973Z" fill="#FFA700"/>
<path d="M38.1503 17.6584C37.2914 19.064 36.3579 20.4219 35.4573 21.5804C35.4662 21.7829 35.4722 21.9824 35.4722 22.1879C35.4722 29.7638 29.4689 35.9669 21.9625 36.3034C22.6037 36.223 22.9795 36.1426 22.9795 36.1426C22.9795 36.1426 11.62 38.1081 17.4682 26.0056C5.34828 31.8454 7.34342 20.5291 7.34342 20.5291C7.34342 20.5291 7.26289 20.9044 7.18237 21.5446C7.51937 14.0491 13.7314 8.05441 21.3183 8.05441C21.8551 8.05441 22.386 8.08717 22.9079 8.14673C24.0113 7.31885 25.3056 6.4463 26.6834 5.62736C24.9925 5.07941 23.1912 4.78162 21.3213 4.78162C11.7095 4.78162 3.88696 12.5899 3.88696 22.1908C3.88696 31.7918 11.7065 39.6 21.3213 39.6C30.9361 39.6 38.7557 31.7918 38.7557 22.1908C38.7527 20.6214 38.5409 19.1056 38.1503 17.6584Z" fill="white"/>
<path d="M70.5198 13.1391C70.2365 12.8622 69.8995 12.6358 69.5238 12.4691C69.139 12.2993 68.7275 12.2159 68.298 12.2159H58.877C58.4476 12.2159 58.036 12.3023 57.6513 12.4691C57.2726 12.6358 56.9386 12.8622 56.6553 13.1391C56.369 13.419 56.1393 13.7556 55.9783 14.1367C55.8143 14.5179 55.7308 14.9289 55.7308 15.3577V20.8997C55.7308 21.3285 55.8143 21.7365 55.9783 22.1207C56.1423 22.5019 56.369 22.8384 56.6553 23.1183C56.9386 23.3952 57.2756 23.6216 57.6543 23.7883C58.039 23.9581 58.4506 24.0415 58.88 24.0415H67.9282V28.8241H58.9844V26.3375H55.4653V29.1963C55.4653 29.6222 55.5488 30.0331 55.7129 30.4173C55.8739 30.7985 56.1035 31.135 56.3869 31.4209C56.6731 31.7068 57.0101 31.9331 57.3919 32.0939C57.7736 32.2577 58.1852 32.3411 58.6146 32.3411H68.304C68.7334 32.3411 69.142 32.2577 69.5267 32.0939C69.9085 31.9331 70.2455 31.7038 70.5318 31.4209C70.818 31.135 71.0447 30.7985 71.2057 30.4173C71.3698 30.0331 71.4533 29.6222 71.4533 29.1963V23.6692C71.4533 23.2434 71.3698 22.8324 71.2057 22.4482C71.0447 22.07 70.8151 21.7306 70.5318 21.4447C70.2455 21.1588 69.9085 20.9325 69.5267 20.7716C69.142 20.6079 68.7334 20.5245 68.304 20.5245H59.2558V15.727H67.9312V18.2285H71.4503V15.3547C71.4503 14.9289 71.3668 14.5179 71.2028 14.1338C71.0358 13.7556 70.8091 13.419 70.5198 13.1391Z" fill="white"/>
<path d="M87.7451 18.0855C87.4738 17.8145 87.1547 17.5971 86.7908 17.4393C86.424 17.2785 86.0274 17.1981 85.6069 17.1981H78.4464C78.0379 17.1981 77.6412 17.2785 77.2714 17.4393C76.9046 17.5971 76.5795 17.8145 76.3082 18.0855C76.0368 18.3565 75.8191 18.6811 75.661 19.0474C75.5029 19.4167 75.4194 19.8157 75.4194 20.2356V29.3035C75.4194 29.7234 75.5 30.1225 75.661 30.4917C75.8191 30.858 76.0368 31.1826 76.3082 31.4536C76.5795 31.7246 76.9046 31.942 77.2714 32.0998C77.6412 32.2576 78.0379 32.341 78.4464 32.341H85.6069C86.0274 32.341 86.427 32.2606 86.7908 32.0998C87.1517 31.942 87.4738 31.7246 87.7451 31.4536C88.0165 31.1826 88.2342 30.858 88.3923 30.4917C88.5504 30.1225 88.6339 29.7234 88.6339 29.3035V20.2356C88.6339 19.8187 88.5533 19.4167 88.3923 19.0474C88.2342 18.6811 88.0165 18.3595 87.7451 18.0855ZM85.2341 20.6078V28.9313H78.8192V20.6078H85.2341Z" fill="white"/>
<path d="M95.7255 11.659H92.3257V32.338H95.7255V11.659Z" fill="white"/>
<path d="M111.469 18.0855C111.197 17.8145 110.872 17.5971 110.506 17.4393C110.136 17.2814 109.736 17.1981 109.316 17.1981H100.241V20.6049H108.943V22.6448H102.441C102.03 22.6448 101.636 22.7252 101.266 22.886C100.897 23.0438 100.575 23.2642 100.303 23.5411C100.035 23.8151 99.8171 24.1367 99.659 24.4971C99.498 24.8634 99.4175 25.2594 99.4175 25.6793V29.3005C99.4175 29.7204 99.498 30.1195 99.659 30.4887C99.8171 30.855 100.035 31.1796 100.306 31.4506C100.578 31.7216 100.903 31.939 101.269 32.0969C101.639 32.2547 102.036 32.3381 102.444 32.3381H106.667C107.058 32.3381 107.434 32.2636 107.783 32.1207C108.129 31.9777 108.442 31.7782 108.713 31.5281C108.797 31.4536 108.874 31.3732 108.946 31.2868V32.3351H112.358V20.2326C112.358 19.8157 112.277 19.4137 112.116 19.0444C111.958 18.6811 111.74 18.3595 111.469 18.0855ZM108.946 26.0545V28.9313H102.817V26.0545H108.946Z" fill="white"/>
<path d="M126.715 18.0854C126.44 17.8174 126.118 17.6 125.757 17.4422C125.39 17.2814 124.994 17.201 124.573 17.201H121.746C121.728 17.201 121.71 17.204 121.695 17.204H119.453V17.201H116.056V32.338H119.453V20.6078H124.2V23.0408H127.612V20.2355C127.612 19.8186 127.532 19.4166 127.371 19.0473C127.213 18.681 126.992 18.3564 126.715 18.0854Z" fill="white"/>
<path d="M145.741 23.0944C145.482 22.6894 145.16 22.3529 144.79 22.0908C144.635 21.9836 144.474 21.8853 144.304 21.799C144.775 21.4565 145.148 21.0187 145.416 20.4887C145.789 19.7501 145.977 18.7942 145.977 17.6536V17.3023C145.977 13.9729 144.221 12.2129 140.895 12.2129H130.454V32.338H141.45C144.775 32.338 146.532 30.584 146.532 27.2635V26.2898C146.532 25.6227 146.463 25.0182 146.332 24.494C146.195 23.964 145.998 23.4905 145.741 23.0944ZM142.512 18.7078C142.512 19.3153 142.395 19.7591 142.163 20.0241C141.942 20.2802 141.545 20.4202 141.003 20.444H133.92V15.6733H140.815C141.435 15.6733 141.876 15.8073 142.127 16.0694C142.383 16.3374 142.512 16.799 142.512 17.4362V18.7078ZM133.917 23.8925H141.366C141.99 23.8925 142.431 24.0235 142.682 24.2796C142.935 24.5387 143.063 24.9943 143.063 25.6286V27.1296C143.063 27.7579 142.935 28.2135 142.679 28.4815C142.428 28.7466 141.987 28.8776 141.366 28.8776H133.917V23.8925Z" fill="#FFA700"/>
<path d="M161.723 18.0855C161.452 17.8145 161.127 17.5971 160.76 17.4393C160.39 17.2814 159.991 17.1981 159.57 17.1981H150.495V20.6049H159.197V22.6448H152.696C152.284 22.6448 151.891 22.7252 151.521 22.886C151.151 23.0438 150.829 23.2642 150.558 23.5411C150.286 23.8151 150.071 24.1367 149.913 24.4971C149.752 24.8634 149.672 25.2594 149.672 25.6793V29.3005C149.672 29.7204 149.752 30.1195 149.913 30.4887C150.071 30.855 150.289 31.1796 150.561 31.4506C150.832 31.7216 151.157 31.939 151.524 32.0969C151.894 32.2547 152.29 32.3381 152.699 32.3381H156.922C157.312 32.3381 157.688 32.2636 158.037 32.1207C158.383 31.9777 158.696 31.7782 158.968 31.5281C159.051 31.4536 159.129 31.3732 159.2 31.2868V32.3351H162.612V20.2326C162.612 19.8157 162.531 19.4137 162.37 19.0444C162.212 18.6811 161.995 18.3595 161.723 18.0855ZM159.197 26.0545V28.9313H153.069V26.0545H159.197Z" fill="#FFA700"/>
<path d="M178.91 18.0855C178.639 17.8145 178.314 17.5971 177.947 17.4393C177.577 17.2814 177.177 17.1981 176.757 17.1981H171.994C171.976 17.1981 171.958 17.201 171.943 17.201H169.701V17.1981H166.301V32.3351H169.701V20.6049H176.384V32.3351H179.796V20.2326C179.796 19.8127 179.715 19.4137 179.554 19.0444C179.399 18.6811 179.181 18.3595 178.91 18.0855Z" fill="#FFA700"/>
<path d="M189.402 24.5179L197.558 17.201H192.694L186.891 22.4125V11.659H183.491V32.338H186.891V26.6501L193.249 32.338H198.113L189.402 24.5179Z" fill="#FFA700"/>
</svg>
